<svg xmlns="http://www.w3.org/2000/svg" width="40" height="40" viewBox="0 0 40 40">
  <g fill="none" fill-rule="evenodd">
    <polygon fill="#EEEEEF" fill-rule="nonzero" points="4.16 21.58 8.5 20.41 9.1 21.01 13.42 11.03 10.83 11.73 7.65 8.55 6.49 12.89 2.14 14.06 5.32 17.24"/>
    <path fill="#EEEEEF" fill-rule="nonzero" d="M38.19,27.24 L33,25.85 L31.61,20.64 L28.24,24 C28.6411753,25.0482988 28.9523006,26.1288738 29.17,27.23 L21.77,30.47 L20.16,32.08 L25.36,33.48 L26.76,38.68 L30.57,34.87 L35.77,36.27 L34.38,31.06 L38.19,27.24 Z"/>
    <path fill="#F43939" fill-rule="nonzero" d="M20.48,30.87 L25,28.69 C23.8822233,25.6822022 22.1251367,22.9527473 19.85,20.69 C17.5110706,18.3482603 14.6837045,16.5521316 11.57,15.43 L9.56999997,20.06 C12.0922879,20.915599 14.3844918,22.3388182 16.27,24.22 C18.1619987,26.0866882 19.6020417,28.3613404 20.48,30.87 L20.48,30.87 Z"/>
    <path fill="#2B273C" fill-rule="nonzero" d="M4.91999996,38.6300002 C3.91244414,38.6253403 2.97451538,38.1152088 2.42307098,37.2719417 C1.87162658,36.4286745 1.7803211,35.364904 2.17999996,34.44 L12.39,11 C12.5781371,10.5702238 13.039755,10.329018 13.5,10.42 C21.8985233,12.0592188 28.4754124,18.6084573 30.15,27 C30.240982,27.460245 29.9997762,27.9218629 29.57,28.11 L6.11999997,38.38 C5.74146897,38.5450338 5.33294287,38.6300002 4.91999996,38.6300002 L4.91999996,38.6300002 Z M13.92,12.53 L3.99999996,35.24 C3.83887546,35.615155 3.92200327,36.0505864 4.20999996,36.34 C4.50123835,36.6323044 4.94210975,36.7157125 5.31999996,36.55 L28,26.63 C26.3231994,19.6537265 20.8762735,14.2068006 13.9,12.53 L13.92,12.53 Z"/>
    <circle cx="15.47" cy="4.36" r="2" fill="#F43939" fill-rule="nonzero"/>
    <circle cx="35.62" cy="17.8" r="2" fill="#F43939" fill-rule="nonzero"/>
    <path fill="#F43939" fill-rule="nonzero" d="M30.34,7.10999997 L27.59,4.35999996 C27.4644135,4.23180465 27.2797564,4.18074639 27.1061514,4.22621436 C26.9325465,4.27168232 26.796624,4.40670189 26.75,4.57999996 L25.75,8.33999997 C25.7109219,8.51166072 25.7596343,8.69152193 25.88,8.81999997 C25.9753883,8.91571971 26.1048664,8.96966893 26.24,8.96999997 L26.37,8.96999997 L30.12,7.96999997 C30.2951977,7.92834897 30.4334314,7.79395507 30.48,7.61999997 C30.5297217,7.43718978 30.4760864,7.24180403 30.34,7.10999997 L30.34,7.10999997 Z"/>
    <path fill="#2B273C" fill-rule="nonzero" d="M28.28 16.37L28.23 16.37C27.6973332 16.3433337 27.279333 15.9033335 27.28 15.37L27.28 15C27.220386 14.0998735 27.552034 13.2177937 28.1899139 12.5799138 28.8277938 11.9420339 29.7098735 11.610386 30.61 11.67 31.17 11.67 31.37 11.67 31.66 11.35 31.95 11.03 31.97 10.86 31.98 10.35 31.9039204 9.44388829 32.229502 8.55006415 32.8705462 7.90516977 33.5115905 7.26027539 34.403449 6.92934745 35.31 6.99999997 35.87 6.99999997 36.08 6.99999997 36.31 6.68999997 36.5618723 6.4363414 36.9299371 6.33632345 37.275548 6.42762193 37.6211588 6.5189204 37.8918093 6.78766489 37.985548 7.13262193 38.0792866 7.47757898 37.9818723 7.8463414 37.73 8.09999997 37.0880495 8.736955 36.2019815 9.06512837 35.3 8.99999997 34.75 8.99999997 34.54 8.99999997 34.3 9.31999997 34.06 9.63999997 34 9.81999997 34 10.38 34.0668038 11.2811199 33.7371126 12.1665367 33.0972159 12.8045117 32.4573193 13.4424867 31.5709149 13.7695136 30.67 13.7 30.12 13.7 29.91 13.7 29.62 14.02 29.33 14.34 29.31 14.52 29.3 15.07 29.3 15.19 29.3 15.3 29.3 15.42 29.2730638 15.9604957 28.8210444 16.3814941 28.28 16.37zM20.14 10.8300243C19.7598431 10.8326456 19.4110655 10.6195038 19.24 10.28L19.11 9.99999997C18.6011971 9.25192144 18.4433689 8.31936297 18.6776743 7.44551923 18.9119796 6.57167549 19.5151904 5.84317581 20.33 5.44999996 20.81 5.15999996 20.98 5.03999996 21.08 4.64999996 21.1621567 4.35018832 21.1111403 4.02951435 20.94 3.76999996 20.68182 3.28385338 20.8650722 2.68046196 21.35 2.41999996 21.5856988 2.2935637 21.862225 2.26681889 22.1177856 2.34574198 22.3733461 2.42466508 22.5866385 2.60267745 22.71 2.83999996 23.1275971 3.55314425 23.2325162 4.40696886 23 5.19999996 22.7672211 6.07191883 22.1694287 6.80093394 21.36 7.19999997 20.88 7.48999997 20.71 7.60999997 20.6 7.99999997 20.49 8.38999997 20.6 8.57999997 20.85 9.06999997L21.02 9.37999997C21.2669243 9.87165353 21.070313 10.4704243 20.58 10.72 20.4429872 10.7879818 20.2928851 10.8255073 20.14 10.8300243z"/>
  </g>
</svg>
